<?xml version="1.0" standalone="no"?>
<!DOCTYPE svg PUBLIC "-//W3C//DTD SVG 20010904//EN"
 "http://www.w3.org/TR/2001/REC-SVG-20010904/DTD/svg10.dtd">
<svg version="1.0" xmlns="http://www.w3.org/2000/svg"
 width="256.000000pt" height="256.000000pt" viewBox="0 0 256.000000 256.000000"
 preserveAspectRatio="xMidYMid meet">

<g transform="translate(0.000000,256.000000) scale(0.100000,-0.100000)"
fill="#000000" stroke="none">
<path d="M683 1588 c-27 -13 -47 -60 -39 -90 3 -13 139 -157 304 -320 275
-275 300 -298 332 -298 32 0 58 23 337 303 274 273 303 305 303 335 0 44 -38
82 -82 82 -29 0 -59 -27 -295 -262 l-263 -262 -263 262 c-274 273 -279 277
-334 250z"/>
</g>
</svg>
